<?xml version="1.0" encoding="UTF-8" standalone="no"?> <svg width="64" height="64" viewBox="0 0 64 64" fill="none" xmlns="http://www.w3.org/2000/svg">
<path d="M15.36 44.2899H50.39L60.04 16.1099H15.36V44.2899Z" fill="#78B9EB"/>
<path d="M61.21 15.25C61.072 15.0581 60.8902 14.9018 60.6798 14.7939C60.4694 14.6861 60.2364 14.6299 60 14.63H39.34V7.63L43.34 11.63C43.4788 11.7698 43.644 11.8806 43.8259 11.9562C44.0079 12.0317 44.203 12.0704 44.4 12.07C44.797 12.0664 45.1771 11.9087 45.46 11.63C45.7385 11.3475 45.8946 10.9667 45.8946 10.57C45.8946 10.1733 45.7385 9.79253 45.46 9.51L38.91 2.94C38.6258 2.66089 38.2433 2.50452 37.845 2.50452C37.4466 2.50452 37.0642 2.66089 36.78 2.94L30.21 9.51C29.9315 9.79253 29.7754 10.1733 29.7754 10.57C29.7754 10.9667 29.9315 11.3475 30.21 11.63C30.3486 11.7703 30.5136 11.8817 30.6956 11.9577C30.8776 12.0337 31.0728 12.0729 31.27 12.0729C31.4672 12.0729 31.6624 12.0337 31.8444 11.9577C32.0264 11.8817 32.1914 11.7703 32.33 11.63L36.33 7.63V14.63H17.19V8.81C17.1909 8.6153 17.1534 8.42233 17.0796 8.24216C17.0058 8.06198 16.8972 7.89813 16.76 7.76L12 3C11.7442 2.70985 11.3856 2.53055 11 2.5H4C3.60217 2.5 3.22064 2.65804 2.93934 2.93934C2.65803 3.22064 2.5 3.60218 2.5 4C2.5 4.39782 2.65803 4.77936 2.93934 5.06066C3.22064 5.34196 3.60217 5.5 4 5.5H10.34L14.19 9.43V43H9.08C8.19498 42.9655 7.31211 43.11 6.48428 43.4249C5.65645 43.7397 4.90071 44.2185 4.26234 44.8324C3.62398 45.4464 3.11613 46.1829 2.76923 46.9978C2.42234 47.8127 2.24353 48.6893 2.24353 49.575C2.24353 50.4607 2.42234 51.3373 2.76923 52.1522C3.11613 52.9671 3.62398 53.7036 4.26234 54.3176C4.90071 54.9315 5.65645 55.4103 6.48428 55.7251C7.31211 56.04 8.19498 56.1845 9.08 56.15H14.36C14.7009 57.6794 15.5528 59.0469 16.7754 60.027C17.998 61.0071 19.5181 61.5412 21.085 61.5412C22.6519 61.5412 24.172 61.0071 25.3946 60.027C26.6172 59.0469 27.4691 57.6794 27.81 56.15H37.2C37.5694 57.8087 38.538 59.2728 39.92 60.2616C41.302 61.2504 43.0003 61.6944 44.6895 61.5086C46.3787 61.3228 47.9398 60.5202 49.0739 59.2546C50.2079 57.9889 50.835 56.3494 50.835 54.65C50.835 52.9507 50.2079 51.3111 49.0739 50.0454C47.9398 48.7798 46.3787 47.9772 44.6895 47.7914C43.0003 47.6056 41.302 48.0496 39.92 49.0384C38.538 50.0272 37.5694 51.4913 37.2 53.15H27.81C27.4691 51.6206 26.6172 50.2531 25.3946 49.273C24.172 48.2929 22.6519 47.7588 21.085 47.7588C19.5181 47.7588 17.998 48.2929 16.7754 49.273C15.5528 50.2531 14.7009 51.6206 14.36 53.15H9.08C8.59462 53.1757 8.10909 53.1023 7.65301 52.9342C7.19693 52.7661 6.77985 52.5069 6.42719 52.1725C6.07453 51.838 5.79368 51.4352 5.60176 50.9886C5.40983 50.542 5.31085 50.0611 5.31085 49.575C5.31085 49.0889 5.40983 48.608 5.60176 48.1614C5.79368 47.7148 6.07453 47.312 6.42719 46.9775C6.77985 46.6431 7.19693 46.3839 7.65301 46.2158C8.10909 46.0477 8.59462 45.9743 9.08 46H47.86C49.0208 46.0036 50.1528 45.6385 51.0927 44.9574C52.0326 44.2763 52.732 43.3142 53.09 42.21L61.43 16.6C61.5046 16.3739 61.5236 16.1331 61.4853 15.8981C61.447 15.663 61.3526 15.4407 61.21 15.25V15.25ZM43.93 50.73C44.7013 50.73 45.4554 50.9587 46.0967 51.3873C46.7381 51.8158 47.2379 52.4249 47.5331 53.1375C47.8283 53.8502 47.9055 54.6343 47.7551 55.3909C47.6046 56.1474 47.2331 56.8423 46.6877 57.3877C46.1423 57.9331 45.4474 58.3046 44.6908 58.4551C43.9343 58.6055 43.1502 58.5283 42.4375 58.2331C41.7249 57.9379 41.1158 57.4381 40.6873 56.7967C40.2587 56.1554 40.03 55.4013 40.03 54.63C40.03 53.5957 40.4409 52.6037 41.1723 51.8723C41.9037 51.1409 42.8957 50.73 43.93 50.73ZM21.09 50.73C21.8613 50.73 22.6154 50.9587 23.2567 51.3873C23.8981 51.8158 24.3979 52.4249 24.6931 53.1375C24.9883 53.8502 25.0655 54.6343 24.9151 55.3909C24.7646 56.1474 24.3931 56.8423 23.8477 57.3877C23.3023 57.9331 22.6074 58.3046 21.8508 58.4551C21.0943 58.6055 20.3102 58.5283 19.5975 58.2331C18.8849 57.9379 18.2758 57.4381 17.8473 56.7967C17.4187 56.1554 17.19 55.4013 17.19 54.63C17.19 53.5957 17.6009 52.6037 18.3323 51.8723C19.0637 51.1409 20.0557 50.73 21.09 50.73V50.73ZM50.24 41.26C50.0803 41.7657 49.7633 42.2071 49.3352 42.5201C48.9071 42.8331 48.3903 43.0012 47.86 43H17.19V17.63H36.34V24C36.34 24.3978 36.498 24.7794 36.7793 25.0607C37.0606 25.342 37.4422 25.5 37.84 25.5C38.2378 25.5 38.6194 25.342 38.9007 25.0607C39.182 24.7794 39.34 24.3978 39.34 24V17.63H57.93L50.24 41.26Z" fill="#006DF0"/>
</svg>
