<?xml version="1.0" encoding="UTF-8" standalone="no"?> <svg width="64" height="64" viewBox="0 0 64 64" fill="none" xmlns="http://www.w3.org/2000/svg">
<path d="M58.9101 44.53L55.3301 41C54.1179 39.7844 52.5102 39.0434 50.7985 38.9113C49.0868 38.7792 47.3845 39.2647 46.0001 40.28L44.1001 41.7C43.4212 42.201 42.5857 42.4431 41.7442 42.3825C40.9026 42.322 40.1103 41.9629 39.5101 41.37L23.4501 25.31C22.8586 24.7085 22.5014 23.9156 22.4427 23.074C22.384 22.2325 22.6278 21.3977 23.1301 20.72L24.5401 18.83C25.5644 17.4505 26.0601 15.7495 25.9372 14.0357C25.8143 12.3219 25.0808 10.7091 23.8701 9.48997L19.4701 5.08997C18.8794 4.49855 18.1779 4.02937 17.4058 3.70925C16.6337 3.38913 15.806 3.22437 14.9701 3.22437C14.1342 3.22437 13.3066 3.38913 12.5344 3.70925C11.7623 4.02937 11.0608 4.49855 10.4701 5.08997L7.3901 8.15997C5.3182 10.2151 4.01333 12.9183 3.69306 15.8189C3.37279 18.7196 4.05647 21.6423 5.6301 24.1C14.4056 37.8954 26.1047 49.5944 39.9001 58.37C42.3583 59.9418 45.2807 60.6244 48.1808 60.3042C51.081 59.984 53.784 58.6802 55.8401 56.61L58.9101 53.53C59.5015 52.9393 59.9707 52.2378 60.2908 51.4657C60.6109 50.6935 60.7757 49.8658 60.7757 49.03C60.7757 48.1941 60.6109 47.3664 60.2908 46.5943C59.9707 45.8221 59.5015 45.1207 58.9101 44.53V44.53Z" fill="#78B9EB"/>
<path d="M46.7801 60.38C44.3435 60.3796 41.9572 59.6859 39.9001 58.38C26.1037 49.6016 14.4045 37.899 5.6301 24.1V24.1C4.05647 21.6423 3.37279 18.7196 3.69306 15.8189C4.01333 12.9183 5.3182 10.2151 7.3901 8.15997L10.4701 5.08997C11.0608 4.49855 11.7623 4.02937 12.5344 3.70925C13.3066 3.38913 14.1342 3.22437 14.9701 3.22437C15.806 3.22437 16.6337 3.38913 17.4058 3.70925C18.1779 4.02937 18.8794 4.49855 19.4701 5.08997L23.8701 9.48997C25.0808 10.7091 25.8143 12.3219 25.9372 14.0357C26.0601 15.7495 25.5644 17.4505 24.5401 18.83L23.1301 20.72C22.6278 21.3977 22.384 22.2325 22.4427 23.074C22.5014 23.9156 22.8586 24.7085 23.4501 25.31L39.5101 41.37C40.1103 41.9629 40.9026 42.322 41.7442 42.3825C42.5857 42.4431 43.4212 42.201 44.1001 41.7L46.0001 40.28C47.3795 39.2556 49.0806 38.7599 50.7944 38.8829C52.5081 39.0058 54.121 39.7392 55.3401 40.95L58.9201 44.53C59.5115 45.1207 59.9807 45.8221 60.3008 46.5943C60.6209 47.3664 60.7857 48.1941 60.7857 49.03C60.7857 49.8658 60.6209 50.6935 60.3008 51.4657C59.9807 52.2378 59.5115 52.9393 58.9201 53.53L55.8501 56.61C54.6616 57.8055 53.2484 58.7541 51.6918 59.4011C50.1351 60.0481 48.4659 60.3808 46.7801 60.38V60.38ZM7.7801 22.77C16.3475 36.2446 27.7657 47.6765 41.2301 56.26C43.2101 57.527 45.5646 58.0772 47.901 57.8188C50.2375 57.5604 52.4148 56.509 54.0701 54.84L57.1501 51.76C57.8719 51.0347 58.2771 50.0532 58.2771 49.03C58.2771 48.0068 57.8719 47.0252 57.1501 46.3L53.5601 42.72C52.768 41.9331 51.7202 41.4561 50.6066 41.3754C49.4931 41.2947 48.3874 41.6156 47.4901 42.28L45.6001 43.7C44.4391 44.5609 43.0082 44.9778 41.5664 44.8751C40.1247 44.7724 38.7673 44.1568 37.7401 43.14L21.7401 27.08C20.7139 26.058 20.0919 24.6994 19.989 23.2548C19.886 21.8102 20.3091 20.3771 21.1801 19.22L22.5901 17.33C23.2565 16.4334 23.5786 15.3274 23.4978 14.2132C23.4171 13.0991 22.9388 12.051 22.1501 11.26L17.7001 6.84997C16.9749 6.12817 15.9933 5.72296 14.9701 5.72296C13.9469 5.72296 12.9653 6.12817 12.2401 6.84997L9.1601 9.92997C7.49104 11.5853 6.4397 13.7626 6.1813 16.0991C5.92291 18.4355 6.47308 20.79 7.7401 22.77H7.7801Z" fill="#006DF0"/>
</svg>
